<svg width="250" height="75" viewBox="0 0 250 75" fill="none" xmlns="http://www.w3.org/2000/svg">
<rect width="250" height="75" fill="white"/>
<path d="M11 64V41.0169C11 37.9605 15.0361 36.8614 16.5858 39.4959L28.1191 59.1025C29.3417 61.1809 32.3926 61.0407 33.4194 58.8588L47 30M141 64H117C115.343 64 114 62.6569 114 61V39C114 37.3431 115.343 36 117 36H141M193 70V58M193 58V39C193 37.3431 194.343 36 196 36H208.524C211.228 36 212.552 39.2982 210.597 41.1679L193 58ZM214 70L226.5 53M239 36L226.5 53M226.5 53L220 36M180.429 54.9071L170.403 67.0823C169.175 68.5736 166.878 68.5322 165.704 66.9975L156.394 54.8224C155.571 53.7467 155.571 52.2533 156.394 51.1777L165.704 39.0025C166.878 37.4678 169.175 37.4264 170.403 38.9177L180.429 51.0929C181.342 52.2006 181.342 53.7994 180.429 54.9071ZM57.2629 36H76.1577C78.1094 36 79.5415 37.8342 79.0681 39.7276L73.5681 61.7276C73.2342 63.0631 72.0343 64 70.6577 64H50.9772C48.9841 64 47.5451 62.0923 48.0926 60.1758L54.3783 38.1758C54.7463 36.8879 55.9235 36 57.2629 36Z" stroke="black" stroke-width="3"/>
<circle cx="233.5" cy="67.5" r="2.5" fill="black"/>
</svg>
